<?xml version="1.0" encoding="UTF-8"?>
<svg xmlns="http://www.w3.org/2000/svg" xmlns:xlink="http://www.w3.org/1999/xlink" width="75px" height="45px" viewBox="0 0 75 45" version="1.1">
<g id="surface1">
<path style=" stroke:none;fill-rule:nonzero;fill:rgb(0%,0%,0%);fill-opacity:1;" d="M 36.277344 22.5 C 36.277344 15.070312 30.253906 9.046875 22.828125 9.046875 C 15.398438 9.046875 9.375 15.070312 9.375 22.5 C 9.375 29.929688 15.398438 35.953125 22.828125 35.953125 C 30.253906 35.953125 36.277344 29.929688 36.277344 22.5 Z M 36.277344 22.5 "/>
<path style=" stroke:none;fill-rule:nonzero;fill:rgb(0%,100%,100%);fill-opacity:1;" d="M 20.796875 20.238281 C 20.796875 20.917969 20.707031 21.554688 20.523438 22.144531 C 20.34375 22.738281 20.113281 23.28125 19.835938 23.769531 C 19.554688 24.261719 19.246094 24.691406 18.902344 25.066406 C 18.554688 25.441406 18.21875 25.742188 17.882812 25.976562 L 16.554688 25.976562 C 16.992188 25.621094 17.382812 25.28125 17.726562 24.949219 C 18.070312 24.617188 18.371094 24.273438 18.628906 23.910156 C 18.886719 23.550781 19.105469 23.15625 19.289062 22.730469 C 19.46875 22.308594 19.613281 21.828125 19.726562 21.292969 L 19.597656 21.292969 C 19.460938 21.65625 19.238281 21.957031 18.925781 22.203125 C 18.617188 22.449219 18.203125 22.570312 17.6875 22.570312 C 16.957031 22.570312 16.378906 22.339844 15.949219 21.882812 C 15.519531 21.421875 15.304688 20.722656 15.304688 19.785156 C 15.304688 18.847656 15.535156 18.121094 16 17.601562 C 16.464844 17.082031 17.148438 16.820312 18.050781 16.820312 C 18.953125 16.820312 19.636719 17.109375 20.101562 17.691406 C 20.5625 18.273438 20.796875 19.121094 20.796875 20.238281 Z M 18.050781 21.667969 C 18.59375 21.667969 19.003906 21.515625 19.289062 21.210938 C 19.570312 20.90625 19.714844 20.445312 19.714844 19.824219 L 19.714844 19.566406 C 19.714844 18.949219 19.570312 18.488281 19.289062 18.183594 C 19.003906 17.875 18.59375 17.722656 18.050781 17.722656 C 17.507812 17.722656 17.09375 17.875 16.8125 18.183594 C 16.527344 18.488281 16.386719 18.949219 16.386719 19.566406 L 16.386719 19.824219 C 16.386719 20.445312 16.527344 20.90625 16.8125 21.210938 C 17.09375 21.515625 17.507812 21.667969 18.050781 21.667969 Z M 22.511719 27.691406 L 22.511719 19.324219 L 23.488281 19.324219 L 23.488281 27.289062 C 23.488281 27.726562 23.390625 28.046875 23.1875 28.25 C 22.984375 28.453125 22.664062 28.554688 22.226562 28.554688 L 21.53125 28.554688 L 21.53125 27.691406 Z M 23 17.710938 C 22.597656 17.710938 22.394531 17.535156 22.394531 17.183594 L 22.394531 16.976562 C 22.394531 16.621094 22.597656 16.445312 23 16.445312 C 23.40625 16.445312 23.605469 16.621094 23.605469 16.976562 L 23.605469 17.183594 C 23.605469 17.535156 23.40625 17.710938 23 17.710938 Z M 30.347656 25.976562 L 29.652344 25.976562 C 29.015625 25.976562 28.699219 25.65625 28.699219 25.019531 L 28.699219 24.890625 L 28.570312 24.890625 C 28.457031 25.296875 28.253906 25.601562 27.957031 25.8125 C 27.660156 26.023438 27.304688 26.128906 26.894531 26.128906 C 26.25 26.128906 25.769531 25.964844 25.449219 25.640625 C 25.132812 25.3125 24.972656 24.832031 24.972656 24.195312 C 24.972656 23.578125 25.175781 23.085938 25.585938 22.726562 C 25.992188 22.363281 26.632812 22.183594 27.5 22.183594 L 28.699219 22.183594 L 28.699219 21.449219 C 28.699219 20.960938 28.589844 20.597656 28.371094 20.367188 C 28.152344 20.136719 27.804688 20.019531 27.332031 20.019531 C 26.945312 20.019531 26.632812 20.101562 26.398438 20.269531 C 26.160156 20.4375 25.957031 20.679688 25.785156 21 L 25.203125 20.457031 C 25.375 20.09375 25.652344 19.792969 26.03125 19.546875 C 26.410156 19.304688 26.855469 19.179688 27.371094 19.179688 C 28.128906 19.179688 28.699219 19.363281 29.09375 19.730469 C 29.484375 20.09375 29.679688 20.632812 29.679688 21.347656 L 29.679688 25.113281 L 30.347656 25.113281 Z M 27.140625 25.277344 C 27.363281 25.277344 27.570312 25.238281 27.765625 25.160156 C 27.957031 25.085938 28.121094 24.984375 28.257812 24.859375 C 28.398438 24.734375 28.503906 24.59375 28.582031 24.433594 C 28.660156 24.273438 28.699219 24.109375 28.699219 23.9375 L 28.699219 22.933594 L 27.472656 22.933594 C 26.957031 22.933594 26.582031 23.019531 26.34375 23.191406 C 26.109375 23.363281 25.992188 23.609375 25.992188 23.9375 L 25.992188 24.296875 C 25.992188 24.632812 26.09375 24.882812 26.300781 25.039062 C 26.507812 25.199219 26.785156 25.277344 27.140625 25.277344 Z M 27.140625 25.277344 "/>
<path style=" stroke:none;fill-rule:nonzero;fill:rgb(0%,100%,100%);fill-opacity:1;" d="M 44.246094 28.554688 L 43.003906 28.554688 L 43.003906 20.101562 L 44.246094 20.101562 L 44.246094 21.476562 L 44.410156 21.476562 C 44.574219 20.953125 44.816406 20.558594 45.132812 20.296875 C 45.449219 20.035156 45.898438 19.902344 46.476562 19.902344 C 47 19.902344 47.445312 20.03125 47.808594 20.289062 C 48.175781 20.546875 48.453125 20.941406 48.636719 21.476562 L 48.800781 21.476562 C 48.976562 20.953125 49.25 20.558594 49.621094 20.296875 C 49.992188 20.035156 50.484375 19.902344 51.097656 19.902344 C 51.816406 19.902344 52.394531 20.160156 52.832031 20.675781 C 53.269531 21.1875 53.488281 21.980469 53.488281 23.050781 L 53.488281 28.554688 L 52.242188 28.554688 L 52.242188 23.132812 C 52.242188 22.453125 52.109375 21.933594 51.84375 21.574219 C 51.574219 21.214844 51.160156 21.035156 50.605469 21.035156 C 50.113281 21.035156 49.699219 21.1875 49.367188 21.492188 C 49.035156 21.796875 48.867188 22.230469 48.867188 22.789062 L 48.867188 28.554688 L 47.625 28.554688 L 47.625 23.132812 C 47.625 22.453125 47.488281 21.933594 47.222656 21.574219 C 46.953125 21.214844 46.542969 21.035156 45.984375 21.035156 C 45.496094 21.035156 45.082031 21.1875 44.75 21.492188 C 44.414062 21.796875 44.246094 22.230469 44.246094 22.789062 Z M 56.515625 18.054688 C 56.003906 18.054688 55.75 17.828125 55.75 17.382812 L 55.75 17.117188 C 55.75 16.671875 56.003906 16.445312 56.515625 16.445312 C 57.03125 16.445312 57.289062 16.671875 57.289062 17.117188 L 57.289062 17.382812 C 57.289062 17.828125 57.03125 18.054688 56.515625 18.054688 Z M 55.894531 28.554688 L 55.894531 20.101562 L 57.140625 20.101562 L 57.140625 28.554688 Z M 60.054688 28.554688 L 58.695312 28.554688 L 61.480469 24.242188 L 58.8125 20.101562 L 60.21875 20.101562 L 62.101562 23.179688 L 62.265625 23.179688 L 64.183594 20.101562 L 65.542969 20.101562 L 62.890625 24.195312 L 65.625 28.554688 L 64.214844 28.554688 L 62.265625 25.246094 L 62.101562 25.246094 Z M 60.054688 28.554688 "/>
</g>
</svg>
