<?xml version="1.0" encoding="UTF-8"?>
<svg xmlns="http://www.w3.org/2000/svg" xmlns:xlink="http://www.w3.org/1999/xlink" width="300px" height="45px" viewBox="0 0 300 45" version="1.1">
<g id="surface1">
<path style=" stroke:none;fill-rule:nonzero;fill:rgb(0%,0%,0%);fill-opacity:1;" d="M 145.109375 22.5 C 145.109375 15.070312 121.019531 9.046875 91.304688 9.046875 C 61.589844 9.046875 37.5 15.070312 37.5 22.5 C 37.5 29.929688 61.589844 35.953125 91.304688 35.953125 C 121.019531 35.953125 145.109375 29.929688 145.109375 22.5 Z M 145.109375 22.5 "/>
<path style=" stroke:none;fill-rule:nonzero;fill:rgb(0%,100%,100%);fill-opacity:1;" d="M 83.1875 20.238281 C 83.1875 20.917969 82.824219 21.554688 82.097656 22.144531 C 81.375 22.738281 80.457031 23.28125 79.339844 23.769531 C 78.222656 24.261719 76.976562 24.691406 75.601562 25.066406 C 74.226562 25.441406 72.867188 25.742188 71.527344 25.976562 L 66.21875 25.976562 C 67.972656 25.621094 69.535156 25.28125 70.910156 24.949219 C 72.285156 24.617188 73.488281 24.273438 74.519531 23.910156 C 75.550781 23.550781 76.425781 23.15625 77.148438 22.730469 C 77.871094 22.308594 78.453125 21.828125 78.902344 21.292969 L 78.386719 21.292969 C 77.839844 21.65625 76.945312 21.957031 75.710938 22.203125 C 74.46875 22.449219 72.816406 22.570312 70.753906 22.570312 C 67.832031 22.570312 65.511719 22.339844 63.789062 21.882812 C 62.070312 21.421875 61.210938 20.722656 61.210938 19.785156 C 61.210938 18.847656 62.140625 18.121094 64 17.601562 C 65.855469 17.082031 68.589844 16.820312 72.199219 16.820312 C 75.808594 16.820312 78.542969 17.109375 80.398438 17.691406 C 82.257812 18.273438 83.1875 19.121094 83.1875 20.238281 Z M 72.199219 21.667969 C 74.367188 21.667969 76.015625 21.515625 77.148438 21.210938 C 78.285156 20.90625 78.851562 20.445312 78.851562 19.824219 L 78.851562 19.566406 C 78.851562 18.949219 78.285156 18.488281 77.148438 18.183594 C 76.015625 17.875 74.367188 17.722656 72.199219 17.722656 C 70.03125 17.722656 68.382812 17.875 67.25 18.183594 C 66.113281 18.488281 65.546875 18.949219 65.546875 19.566406 L 65.546875 19.824219 C 65.546875 20.445312 66.113281 20.90625 67.25 21.210938 C 68.382812 21.515625 70.03125 21.667969 72.199219 21.667969 Z M 90.039062 27.691406 L 90.039062 19.324219 L 93.957031 19.324219 L 93.957031 27.289062 C 93.957031 27.726562 93.554688 28.046875 92.75 28.25 C 91.941406 28.453125 90.660156 28.554688 88.910156 28.554688 L 86.121094 28.554688 L 86.121094 27.691406 Z M 92.003906 17.710938 C 90.382812 17.710938 89.574219 17.535156 89.574219 17.183594 L 89.574219 16.976562 C 89.574219 16.621094 90.382812 16.445312 92.003906 16.445312 C 93.617188 16.445312 94.425781 16.621094 94.425781 16.976562 L 94.425781 17.183594 C 94.425781 17.535156 93.617188 17.710938 92.003906 17.710938 Z M 121.398438 25.976562 L 118.609375 25.976562 C 116.066406 25.976562 114.792969 25.65625 114.792969 25.019531 L 114.792969 24.890625 L 114.277344 24.890625 C 113.835938 25.296875 113.015625 25.601562 111.828125 25.8125 C 110.644531 26.023438 109.226562 26.128906 107.574219 26.128906 C 104.996094 26.128906 103.070312 25.964844 101.800781 25.640625 C 100.527344 25.3125 99.890625 24.832031 99.890625 24.195312 C 99.890625 23.578125 100.707031 23.085938 102.339844 22.726562 C 103.972656 22.363281 106.527344 22.183594 110.003906 22.183594 L 114.792969 22.183594 L 114.792969 21.449219 C 114.792969 20.960938 114.355469 20.597656 113.484375 20.367188 C 112.605469 20.136719 111.21875 20.019531 109.328125 20.019531 C 107.78125 20.019531 106.535156 20.101562 105.589844 20.269531 C 104.644531 20.4375 103.828125 20.679688 103.140625 21 L 100.820312 20.457031 C 101.507812 20.09375 102.609375 19.792969 104.121094 19.546875 C 105.636719 19.304688 107.421875 19.179688 109.488281 19.179688 C 112.507812 19.179688 114.804688 19.363281 116.371094 19.730469 C 117.929688 20.09375 118.710938 20.632812 118.710938 21.347656 L 118.710938 25.113281 L 121.398438 25.113281 Z M 108.554688 25.277344 C 109.449219 25.277344 110.28125 25.238281 111.054688 25.160156 C 111.828125 25.085938 112.488281 24.984375 113.039062 24.859375 C 113.59375 24.734375 114.023438 24.59375 114.328125 24.433594 C 114.636719 24.273438 114.792969 24.109375 114.792969 23.9375 L 114.792969 22.933594 L 109.894531 22.933594 C 107.832031 22.933594 106.328125 23.019531 105.382812 23.191406 C 104.4375 23.363281 103.964844 23.609375 103.964844 23.9375 L 103.964844 24.296875 C 103.964844 24.632812 104.378906 24.882812 105.203125 25.039062 C 106.03125 25.199219 107.148438 25.277344 108.554688 25.277344 Z M 108.554688 25.277344 "/>
<path style=" stroke:none;fill-rule:nonzero;fill:rgb(0%,100%,100%);fill-opacity:1;" d="M 176.992188 28.554688 L 172.011719 28.554688 L 172.011719 20.101562 L 176.992188 20.101562 L 176.992188 21.476562 L 177.644531 21.476562 C 178.300781 20.953125 179.261719 20.558594 180.53125 20.296875 C 181.796875 20.035156 183.589844 19.902344 185.910156 19.902344 C 188.003906 19.902344 189.78125 20.03125 191.242188 20.289062 C 192.710938 20.546875 193.816406 20.941406 194.554688 21.476562 L 195.210938 21.476562 C 195.90625 20.953125 197 20.558594 198.484375 20.296875 C 199.972656 20.035156 201.9375 19.902344 204.382812 19.902344 C 207.265625 19.902344 209.578125 20.160156 211.328125 20.675781 C 213.074219 21.1875 213.949219 21.980469 213.949219 23.050781 L 213.949219 28.554688 L 208.96875 28.554688 L 208.96875 23.132812 C 208.96875 22.453125 208.4375 21.933594 207.367188 21.574219 C 206.292969 21.214844 204.644531 21.035156 202.417969 21.035156 C 200.453125 21.035156 198.800781 21.1875 197.46875 21.492188 C 196.136719 21.796875 195.472656 22.230469 195.472656 22.789062 L 195.472656 28.554688 L 190.496094 28.554688 L 190.496094 23.132812 C 190.496094 22.453125 189.957031 21.933594 188.886719 21.574219 C 187.816406 21.214844 186.171875 21.035156 183.941406 21.035156 C 181.976562 21.035156 180.328125 21.1875 178.992188 21.492188 C 177.65625 21.796875 176.992188 22.230469 176.992188 22.789062 Z M 226.070312 18.054688 C 224.019531 18.054688 222.996094 17.828125 222.996094 17.382812 L 222.996094 17.117188 C 222.996094 16.671875 224.019531 16.445312 226.070312 16.445312 C 228.125 16.445312 229.15625 16.671875 229.15625 17.117188 L 229.15625 17.382812 C 229.15625 17.828125 228.125 18.054688 226.070312 18.054688 Z M 223.585938 28.554688 L 223.585938 20.101562 L 228.5625 20.101562 L 228.5625 28.554688 Z M 240.222656 28.554688 L 234.789062 28.554688 L 245.929688 24.242188 L 235.242188 20.101562 L 240.875 20.101562 L 248.414062 23.179688 L 249.066406 23.179688 L 256.738281 20.101562 L 262.171875 20.101562 L 251.5625 24.195312 L 262.5 28.554688 L 256.867188 28.554688 L 249.066406 25.246094 L 248.414062 25.246094 Z M 240.222656 28.554688 "/>
</g>
</svg>
