<svg xmlns="http://www.w3.org/2000/svg" version="1.1" xmlns:xlink="http://www.w3.org/1999/xlink" xmlns:svgjs="http://svgjs.dev/svgjs" width="100%" height="100%" viewBox="0 0 1000 600"><rect width="1000" height="600" x="0" y="0" fill="transparent"/><g><circle r="166.66666666666666" cx="282.82692972819007" cy="305.0491774144044" fill="black " transform="matrix(1.0760993214742356,0,0,1.0760993214742354,0,-28.2632040001226)"/><path d="M257.679049433611 277.01710165245066L257.679049433611 277.01710165245066Q257.679049433611 289.6409723222112 254.30676763782262 300.6674463518615Q250.9566719064802 311.6717343170658 245.76513282612174 320.79020680436213Q240.57359374576325 329.88649322721244 234.18400718532206 336.830731398803Q227.79442062488087 343.79715563483956 221.5601365155615 348.101252137359L221.5601365155615 348.101252137359L205.12026276109302 348.101252137359Q213.26254841276636 341.556363125796 219.65213497320755 335.41082327426045Q226.04172153364874 329.2430973582791 230.83391145397962 322.54290589559423Q235.62610137431054 315.84271443290936 238.97619710565294 307.92228942569574Q242.32629283699538 300.02405048292815 244.41178289491717 290.10687967557675L244.41178289491717 290.10687967557675L242.81438625480686 290.10687967557675Q240.2629888435196 296.82925720270754 234.51679815201172 301.37740041413275Q228.74842139605784 305.92554362555785 219.16404155539607 305.92554362555785L219.16404155539607 305.92554362555785Q205.58617011445853 305.92554362555785 197.59918691390703 297.383908813857Q189.61220371335554 288.8422740021561 189.61220371335554 271.4262134120646L189.61220371335554 271.4262134120646Q189.61220371335554 254.01015282197318 198.24258278284034 244.35921478797346Q206.87296185232515 234.68609068952776 223.6456265734833 234.68609068952776L223.6456265734833 234.68609068952776Q240.41829129464142 234.68609068952776 249.04867036412622 245.46851801027228Q257.679049433611 256.2509453310168 257.679049433611 277.01710165245066ZM223.6456265734833 294.7437671447858L223.6456265734833 294.7437671447858Q233.71809983195655 294.7437671447858 238.97619710565294 289.08632071106183Q244.25648044379534 283.4066882128919 244.25648044379534 271.9143068298761L244.25648044379534 271.9143068298761L244.25648044379534 268.7195135496555Q244.25648044379534 257.2049461021938 238.97619710565294 251.5474996684698Q233.71809983195655 245.86786717029986 223.6456265734833 245.86786717029986L223.6456265734833 245.86786717029986Q213.57315331501002 245.86786717029986 208.31505604131362 251.5474996684698Q203.03477270317126 257.2049461021938 203.03477270317126 268.7195135496555L203.03477270317126 268.7195135496555L203.03477270317126 271.9143068298761Q203.03477270317126 283.4066882128919 208.31505604131362 289.08632071106183Q213.57315331501002 294.7437671447858 223.6456265734833 294.7437671447858ZM278.9111131084104 369.3555018766043L278.9111131084104 265.68002272055674L291.0468903603595 265.68002272055674L291.0468903603595 364.3858234407056Q291.0468903603595 372.550295156825 287.2974454689895 376.29974004819496Q283.5480005776195 380.04918493956495 275.4057149259462 380.04918493956495L275.4057149259462 380.04918493956495L266.7753358564613 380.04918493956495L266.7753358564613 369.3555018766043L278.9111131084104 369.3555018766043ZM284.99009476660797 245.71256471917803L284.99009476660797 245.71256471917803Q277.46901891942196 245.71256471917803 277.46901891942196 239.167675707615L277.46901891942196 239.167675707615L277.46901891942196 236.59409223188175Q277.46901891942196 230.0492032203187 284.99009476660797 230.0492032203187L284.99009476660797 230.0492032203187Q292.48898454934795 230.0492032203187 292.48898454934795 236.59409223188175L292.48898454934795 236.59409223188175L292.48898454934795 239.167675707615Q292.48898454934795 245.71256471917803 284.99009476660797 245.71256471917803ZM376.0417032528949 348.101252137359L367.41132418341016 348.101252137359Q355.5861518337048 348.101252137359 355.5861518337048 336.27607978765354L355.5861518337048 336.27607978765354L355.5861518337048 334.6786831475433L353.98875519359444 334.6786831475433Q351.9254512001187 342.19975899472934 346.40112115307056 346.1045063372211Q340.8989771704684 350.00925367971297 333.2225988721606 350.00925367971297L333.2225988721606 350.00925367971297Q321.24212407133336 350.00925367971297 315.3406309287036 343.95245808596144Q309.4169517216279 337.8734764277639 309.4169517216279 326.04830407805844L309.4169517216279 326.04830407805844Q309.4169517216279 314.5559226950427 317.00458576215186 307.8557312323578Q324.5922198026758 301.13335370522697 340.7436747193466 301.13335370522697L340.7436747193466 301.13335370522697L355.5861518337048 301.13335370522697L355.5861518337048 292.03706728237665Q355.5861518337048 282.91859479508037 351.5261020400911 278.614498292561Q347.44386618203146 274.31040179004157 338.6581846614248 274.31040179004157L338.6581846614248 274.31040179004157Q331.4698997809285 274.31040179004157 327.07705902062514 277.4164508124782Q322.6842182603218 280.5224998349149 319.4894249801012 286.4461790419906L319.4894249801012 286.4461790419906L312.3011400996048 279.72380151485976Q315.4959333798255 273.0236100521749 322.5289158092 268.4754668407498Q329.5618982385745 263.92732362932463 339.14627807923625 263.92732362932463L339.14627807923625 263.92732362932463Q353.19005687353933 263.92732362932463 360.46708601181956 270.71625934979335Q367.7219290856538 277.5051950702622 367.7219290856538 290.75027554451003L367.7219290856538 290.75027554451003L367.7219290856538 337.40756907439834L376.0417032528949 337.40756907439834L376.0417032528949 348.101252137359ZM336.26208970125936 339.4708730678742L336.26208970125936 339.4708730678742Q340.4108837526569 339.4708730678742 344.0050261929051 338.02877887888576Q347.5991686331532 336.60887075434323 350.15056604444055 334.27933398751566Q352.7241495201738 331.97198328513423 354.1440576447163 329.02123671381935Q355.5861518337048 326.04830407805844 355.5861518337048 322.8535107978379L355.5861518337048 322.8535107978379L355.5861518337048 310.40712864364514L340.4108837526569 310.40712864364514Q330.82650391199513 310.40712864364514 326.4336631516918 313.6019219238657Q322.0408223913885 316.79671520408635 322.0408223913885 322.8535107978379L322.0408223913885 322.8535107978379L322.0408223913885 327.3350958159251Q322.0408223913885 333.56937992524445 325.87901154054236 336.5201264965593Q329.7172006896963 339.4708730678742 336.26208970125936 339.4708730678742Z " fill="#00ffff" transform="matrix(1.0760993214742356,0,0,1.0760993214742354,0,-28.2632040001226)"/><path d="M548.2469823641026 380.04918999272456L532.8269482705588 380.04918999272456L532.8269482705588 275.32263303200233L548.2469823641026 275.32263303200233L548.2469823641026 292.3776981628871L550.2766760656293 292.3776981628871Q553.3212166179195 282.62389231943894 559.212966390407 277.7469893977149Q565.1047161628944 272.87008647599083 575.873368857106 272.87008647599083L575.873368857106 272.87008647599083Q585.5989845102551 272.87008647599083 592.3928203723101 277.66241882681794Q599.214846424664 282.4265609873461 602.6540496411399 292.3776981628871L602.6540496411399 292.3776981628871L604.6837433426667 292.3776981628871Q607.9256152270498 282.62389231943894 614.8322118503006 277.7469893977149Q621.7388084735514 272.87008647599083 633.0994551640416 272.87008647599083L633.0994551640416 272.87008647599083Q646.4897955560587 272.87008647599083 654.6085703621658 282.4265609873461Q662.7273451682728 291.95484530840235 662.7273451682728 311.8571196594845L662.7273451682728 311.8571196594845L662.7273451682728 380.04918999272456L647.3073110747291 380.04918999272456L647.3073110747291 312.87196651024783Q647.3073110747291 300.2709514466024 642.3458375821081 293.5898763457434Q637.3561738991881 286.8806110545854 627.0103740594614 286.8806110545854L627.0103740594614 286.8806110545854Q617.8767524025908 286.8806110545854 611.6749105368144 292.57502949498Q605.5012588613372 298.2412577450756 605.5012588613372 308.61524777510135L605.5012588613372 308.61524777510135L605.5012588613372 380.04918999272456L590.0812247677934 380.04918999272456L590.0812247677934 312.87196651024783Q590.0812247677934 300.2709514466024 585.0915610848734 293.5898763457434Q580.1300875922525 286.8806110545854 569.7842877525256 286.8806110545854L569.7842877525256 286.8806110545854Q560.6506660956551 286.8806110545854 554.4488242298788 292.57502949498Q548.2469823641026 298.2412577450756 548.2469823641026 308.61524777510135L548.2469823641026 308.61524777510135L548.2469823641026 380.04918999272456ZM700.2766786465183 249.95146176291757L700.2766786465183 249.95146176291757Q690.7483943254621 249.95146176291757 690.7483943254621 241.63535562471753L690.7483943254621 241.63535562471753L690.7483943254621 238.36529355003552Q690.7483943254621 230.0491874118355 700.2766786465183 230.0491874118355L700.2766786465183 230.0491874118355Q709.8331531578737 230.0491874118355 709.8331531578737 238.36529355003552L709.8331531578737 238.36529355003552L709.8331531578737 241.63535562471753Q709.8331531578737 249.95146176291757 700.2766786465183 249.95146176291757ZM692.580756694896 380.04918999272456L692.580756694896 275.32263303200233L708.0007907884398 275.32263303200233L708.0007907884398 380.04918999272456L692.580756694896 380.04918999272456ZM744.112424561437 380.04918999272456L727.2828809529441 380.04918999272456L761.7876738788995 326.6569695664506L728.6923904678932 275.32263303200233L746.1421182629638 275.32263303200233L769.4835958305218 313.4639605065265L771.5132895320486 313.4639605065265L795.2776199540914 275.32263303200233L812.1071635625842 275.32263303200233L779.2374016739699 326.0649755701719L813.1220104133477 380.04918999272456L795.6722826182771 380.04918999272456L771.5132895320486 339.0606532980031L769.4835958305218 339.0606532980031L744.112424561437 380.04918999272456Z " fill="#00ffff" transform="matrix(1.0760993214742356,0,0,1.0760993214742354,0,-28.2632040001226)"/></g></svg>