<?xml version="1.0" encoding="UTF-8"?>
<svg version="1.1" xmlns="http://www.w3.org/2000/svg" width="300" height="45">
<path d="M0 0 C24.75 0 49.5 0 75 0 C75 14.85 75 29.7 75 45 C50.25 45 25.5 45 0 45 C0 30.15 0 15.3 0 0 Z " fill="#000303" transform="translate(112,0)"/>
<path d="M0 0 C4.24425255 1.60160473 6.62048086 3.15721334 9 7 C9.90436131 11.93732391 9.4874735 15.98894385 7.3125 20.5 C3.7127415 24.39163081 1.27918419 24.85786842 -3.9375 25.4375 C-7.16178186 25.36422087 -8.91762577 24.69855347 -11.4375 22.6875 C-15.3848478 18.54759865 -15.33690005 14.91473922 -15.2890625 9.4453125 C-14.88021014 5.98664256 -13.53528726 4.31797693 -11 2 C-7.27661917 -0.48225389 -4.31288496 -0.53094228 0 0 Z " fill="#00F3F3" transform="translate(137,10)"/>
<path d="M0 0 C0.99 0 1.98 0 3 0 C3 0.99 3 1.98 3 3 C3.804375 2.979375 4.60875 2.95875 5.4375 2.9375 C8 3 8 3 9 4 C9.04063832 5.66617115 9.042721 7.33388095 9 9 C8.2575 8.95875 7.515 8.9175 6.75 8.875 C3.66578189 8.82866033 3.66578189 8.82866033 0 11 C0 7.37 0 3.74 0 0 Z " fill="#008181" transform="translate(133,17)"/>
<path d="M0 0 C1.81242052 -0.02687279 3.62495233 -0.04633715 5.4375 -0.0625 C6.44683594 -0.07410156 7.45617187 -0.08570312 8.49609375 -0.09765625 C11 0 11 0 12 1 C12.04080783 2.99958364 12.04254356 5.00045254 12 7 C11.01 7 10.02 7 9 7 C9 5.35 9 3.7 9 2 C8.34 2 7.68 2 7 2 C7 3.65 7 5.3 7 7 C6.34 7 5.68 7 5 7 C5 5.35 5 3.7 5 2 C4.01 2 3.02 2 2 2 C2 3.65 2 5.3 2 7 C1.34 7 0.68 7 0 7 C0 4.69 0 2.38 0 0 Z " fill="#00E8E8" transform="translate(153,21)"/>
<path d="M0 0 C2.125 0.375 2.125 0.375 4 1 C4.125 3.875 4.125 3.875 4 7 C3.34 7.66 2.68 8.32 2 9 C1.01 9 0.02 9 -1 9 C-1.625 5.625 -1.625 5.625 -2 2 C-1.34 1.34 -0.68 0.68 0 0 Z " fill="#004F4F" transform="translate(128,17)"/>
<path d="M0 0 C0.66 0 1.32 0 2 0 C2 0.66 2 1.32 2 2 C2.66 2 3.32 2 4 2 C4 1.34 4 0.68 4 0 C4.66 0 5.32 0 6 0 C6 2.31 6 4.62 6 7 C5.34 7 4.68 7 4 7 C4 6.34 4 5.68 4 5 C3.34 5 2.68 5 2 5 C2 5.66 2 6.32 2 7 C1.34 7 0.68 7 0 7 C0 4.69 0 2.38 0 0 Z " fill="#00E0E0" transform="translate(171,21)"/>
<path d="M0 0 C2.475 0.495 2.475 0.495 5 1 C5 2.65 5 4.3 5 6 C3.35 6 1.7 6 0 6 C0 4.02 0 2.04 0 0 Z " fill="#004A4A" transform="translate(137,20)"/>
<path d="M0 0 C1.66611905 -0.042721 3.33382885 -0.04063832 5 0 C6 1 6 1 6.0625 4.0625 C6.041875 5.031875 6.02125 6.00125 6 7 C5.01 7 4.02 7 3 7 C3 5.35 3 3.7 3 2 C2.01 1.67 1.02 1.34 0 1 C0 0.67 0 0.34 0 0 Z " fill="#00C4C4" transform="translate(159,21)"/>
<path d="M0 0 C0.66 0 1.32 0 2 0 C2 3.63 2 7.26 2 11 C1.34 11 0.68 11 0 11 C-0.19406478 9.35492782 -0.38007935 7.70890406 -0.5625 6.0625 C-0.66691406 5.14597656 -0.77132812 4.22945312 -0.87890625 3.28515625 C-0.91886719 2.53105469 -0.95882812 1.77695312 -1 1 C-0.67 0.67 -0.34 0.34 0 0 Z " fill="#00BEBE" transform="translate(167,17)"/>
</svg>
